<svg width="44" height="44" viewBox="0 0 44 44" fill="none" xmlns="http://www.w3.org/2000/svg">
<g id="amex-svgrepo-com" clip-path="url(#clip0_13095_30654)">
<path id="Vector" d="M44 7.89746H0V36.1026H44V7.89746Z" fill="#2557D6"/>
<path id="Vector_2" d="M0.0159071 21.193H2.12796L2.60418 20.0924H3.67033L4.14531 21.193H8.30094V20.3516L8.67189 21.1967H10.8292L11.2001 20.3391V21.193H21.5277L21.5229 19.3865H21.7227C21.8626 19.3911 21.9035 19.4035 21.9035 19.6248V21.193H27.2449V20.7725C27.6758 20.9936 28.3459 21.193 29.2276 21.193H31.4748L31.9557 20.0925H33.0218L33.4921 21.193H37.8225V20.1477L38.4783 21.193H41.9484V14.2822H38.5141V15.0984L38.0334 14.2822H34.5094V15.0984L34.0678 14.2822H29.3079C28.5112 14.2822 27.8108 14.3888 27.245 14.6857V14.2822H23.9603V14.6857C23.6002 14.3796 23.1097 14.2822 22.5642 14.2822H10.5634L9.75824 16.0671L8.93132 14.2822H5.15155V15.0984L4.73626 14.2822H1.5127L0.015625 17.5679V21.1929H0.0157942L0.0159071 21.193ZM13.3479 20.1962H12.0807L12.076 16.3155L10.2836 20.1962H9.19826L7.40114 16.3121V20.1962H4.88693L4.41196 19.091H1.83813L1.35836 20.1962H0.0157378L2.22933 15.2413H4.06599L6.16835 19.9326V15.2413H8.18592L9.80365 18.6026L11.2897 15.2413H13.3479L13.3479 20.1962ZM3.98945 18.0626L3.1434 16.0873L2.30205 18.0626H3.98945ZM18.391 20.1961H14.2616V15.2412H18.391V16.273H15.4978V17.1661H18.3217V18.1818H15.4977V19.1714H18.3909L18.391 20.1961ZM24.2103 16.5757C24.2103 17.3657 23.66 17.7739 23.3393 17.8964C23.6098 17.995 23.8409 18.1693 23.9508 18.3136C24.1254 18.5601 24.1555 18.7802 24.1555 19.2227V20.1961H22.9086L22.9039 19.5713C22.9039 19.2731 22.9337 18.8443 22.7089 18.606C22.5282 18.4317 22.2529 18.3939 21.8078 18.3939H20.4809V20.1962H19.2447V15.2412H22.0878C22.7196 15.2412 23.1851 15.2572 23.5847 15.4785C23.9758 15.6999 24.2103 16.023 24.2103 16.5757ZM22.6478 17.3114C22.4778 17.4102 22.277 17.4135 22.0362 17.4135H20.5346V16.3129H22.0566C22.272 16.3129 22.4969 16.3222 22.6429 16.4023C22.8032 16.4745 22.9025 16.6281 22.9025 16.8403C22.9025 17.0569 22.808 17.2312 22.6478 17.3114ZM26.1928 20.1961H24.9316V15.2412H26.1928V20.1961ZM40.8347 20.1961H39.0829L36.7399 16.4771V20.1961H34.2225L33.7415 19.0909H31.1736L30.707 20.1961H29.2602C28.6595 20.1961 27.8986 20.0688 27.4679 19.6481C27.0335 19.2274 26.8075 18.6575 26.8075 17.7565C26.8075 17.0216 26.9426 16.3498 27.4738 15.819C27.8734 15.4235 28.4993 15.2412 29.3511 15.2412H30.5478V16.3029H29.3762C28.925 16.3029 28.6702 16.3672 28.425 16.5964C28.2143 16.8051 28.0697 17.1994 28.0697 17.7188C28.0697 18.2496 28.1797 18.6324 28.4094 18.8824C28.5997 19.0785 28.9457 19.138 29.2709 19.138H29.8261L31.5683 15.2414H33.4205L35.5135 19.928V15.2414H37.3957L39.5685 18.6923V15.2414H40.8347V20.1961ZM33.3208 18.0627L32.4653 16.0874L31.6146 18.0627H33.3208ZM43.9846 28.1082C43.6844 28.5289 43.0993 28.7421 42.3072 28.7421H39.92V27.6794H42.2975C42.5333 27.6794 42.6983 27.6497 42.7977 27.5567C42.8917 27.4735 42.9447 27.3562 42.9439 27.2335C42.9439 27.089 42.8839 26.9744 42.7929 26.9057C42.7032 26.83 42.5727 26.7957 42.3573 26.7957C41.1967 26.7579 39.7486 26.83 39.7486 25.2617C39.7486 24.5429 40.2249 23.7862 41.5221 23.7862H43.9844V22.8002H41.6965C41.0063 22.8002 40.5047 22.9587 40.1495 23.2049V22.8002H36.7657C36.2245 22.8002 35.5893 22.9287 35.289 23.2049V22.8002H29.2463V23.2049C28.7655 22.8725 27.954 22.8002 27.5794 22.8002H23.5937V23.2049C23.2132 22.8519 22.3672 22.8002 21.8514 22.8002H17.3907L16.37 23.8587L15.4139 22.8002H8.75013V29.7155H15.2881L16.3399 28.6402L17.3308 29.7155L21.3608 29.7189V28.0922H21.7569C22.2916 28.1001 22.9223 28.0793 23.4787 27.849V29.7153H26.8028V27.9129H26.9631C27.1678 27.9129 27.1879 27.921 27.1879 28.1168V29.7151H37.2859C37.927 29.7151 38.5971 29.5579 38.9683 29.2725V29.7151H42.1713C42.8378 29.7151 43.4887 29.6255 43.984 29.3964L43.9841 28.108L43.9846 28.1082ZM23.9623 25.4482C23.9623 26.8249 22.8903 27.1092 21.8098 27.1092H20.2674V28.7715H17.8648L16.3426 27.1308L14.7608 28.7715H9.86424V23.8154H14.836L16.3568 25.4399L17.9293 23.8154H21.8792C22.8601 23.8154 23.9623 24.0756 23.9623 25.4482ZM14.1345 27.7291H11.0953V26.743H13.8092V25.7318H11.0953V24.8307H14.1944L15.5465 26.275L14.1345 27.7291ZM19.0315 28.2966L17.1337 26.2777L19.0315 24.3231V28.2966ZM21.8383 26.0928H20.2409V24.8307H21.8527C22.299 24.8307 22.6088 25.005 22.6088 25.4384C22.6088 25.867 22.3133 26.0928 21.8383 26.0928ZM30.2074 23.8154H34.3331V24.8404H31.4384V25.7414H34.2624V26.7526H31.4384V27.7387L34.333 27.7432V28.7715H30.2072L30.2074 23.8154ZM28.6212 26.4683C28.8963 26.5656 29.1212 26.74 29.2267 26.8843C29.4013 27.1264 29.4265 27.3522 29.4315 27.789V28.7715H28.1904V28.1515C28.1904 27.8533 28.2203 27.4118 27.9905 27.1813C27.81 27.0038 27.5346 26.9614 27.0837 26.9614H25.7626V28.7716H24.5204V23.8154H27.3744C28.0002 23.8154 28.456 23.842 28.8617 24.0493C29.2518 24.2752 29.4973 24.5845 29.4973 25.1499C29.4972 25.9409 28.9465 26.3446 28.6212 26.4683ZM27.9225 25.8418C27.7571 25.9358 27.5527 25.9439 27.3123 25.9439H25.8105V24.8308H27.3326C27.5527 24.8308 27.773 24.8353 27.9225 24.9204C28.0827 25.0006 28.1785 25.1542 28.1785 25.3662C28.1785 25.5782 28.0827 25.749 27.9225 25.8418ZM39.0816 26.1575C39.3225 26.396 39.4513 26.6974 39.4513 27.2075C39.4513 28.2736 38.7562 28.7713 37.5094 28.7713H35.1018V27.7085H37.4998C37.7343 27.7085 37.9005 27.6789 38.0047 27.5859C38.0897 27.5092 38.1507 27.3978 38.1507 27.2627C38.1507 27.1182 38.0847 27.0036 37.9998 26.9349C37.9053 26.8593 37.775 26.8249 37.5596 26.8249C36.4036 26.7871 34.9559 26.8593 34.9559 25.291C34.9559 24.5721 35.4272 23.8154 36.7232 23.8154H39.2015V24.8703H36.9339C36.7091 24.8703 36.563 24.8785 36.4387 24.9598C36.3033 25.0401 36.2531 25.1592 36.2531 25.3163C36.2531 25.5032 36.368 25.6305 36.5236 25.6856C36.6539 25.729 36.794 25.7417 37.0045 25.7417L37.67 25.7589C38.341 25.7745 38.8016 25.8858 39.0816 26.1575ZM43.9867 24.8307H41.7338C41.509 24.8307 41.3594 24.8388 41.2336 24.9202C41.1032 25.0005 41.053 25.1196 41.053 25.2769C41.053 25.4638 41.1631 25.591 41.3233 25.646C41.4537 25.6895 41.5938 25.7022 41.7996 25.7022L42.4696 25.7193C43.1456 25.7354 43.5968 25.8467 43.872 26.1183C43.9223 26.1561 43.9522 26.1985 43.9867 26.241V24.8307H43.9867Z" fill="white"/>
</g>
<defs>
<clipPath id="clip0_13095_30654">
<rect width="44" height="44" fill="white"/>
</clipPath>
</defs>
</svg>
