<svg width="44" height="44" viewBox="0 0 44 44" fill="none" xmlns="http://www.w3.org/2000/svg">
<g id="discover-svgrepo-com" clip-path="url(#clip0_13095_30657)">
<g id="Group">
<path id="Vector" fill-rule="evenodd" clip-rule="evenodd" d="M3.10211 7.89746C0 7.89746 0 7.89746 0 7.89746C0 7.89746 0 7.89746 0 36.159H37.7958C42.6108 36.159 44 34.7696 44 33.0562V7.89746C0 7.89746 42.6112 7.89746 40.8979 7.89746H3.10211Z" fill="#4D4D4D"/>
<path id="Vector_2" fill-rule="evenodd" clip-rule="evenodd" d="M18.4566 17.0303C18.9551 17.0303 19.3731 17.1309 19.882 17.3738V18.6572C19.4 18.2136 18.9819 18.028 18.429 18.028C17.3424 18.028 16.4877 18.875 16.4877 19.9488C16.4877 21.0812 17.3159 21.8778 18.483 21.8778C19.0083 21.8778 19.4186 21.7018 19.882 21.2653V22.5494C19.355 22.7829 18.928 22.8752 18.429 22.8752C16.6646 22.8752 15.2937 21.6006 15.2937 19.9567C15.2937 18.3306 16.7011 17.0303 18.4566 17.0303ZM12.9784 17.0656C13.6297 17.0656 14.2256 17.2755 14.7239 17.6858L14.1176 18.4331C13.8158 18.1146 13.5304 17.9803 13.1832 17.9803C12.6838 17.9803 12.3202 18.2479 12.3202 18.6002C12.3202 18.9022 12.5243 19.0621 13.2196 19.3043C14.5376 19.758 14.9282 20.1604 14.9282 21.0488C14.9282 22.1315 14.0834 22.8851 12.8794 22.8851C11.9977 22.8851 11.3567 22.5583 10.8228 21.8206L11.5713 21.142C11.8381 21.6277 12.2833 21.8878 12.836 21.8878C13.3529 21.8878 13.7355 21.5521 13.7355 21.099C13.7355 20.8641 13.6196 20.6627 13.3882 20.5203C13.2716 20.4529 13.0408 20.3524 12.5871 20.2018C11.4989 19.833 11.1256 19.4387 11.1256 18.6683C11.1256 17.753 11.9274 17.0656 12.9784 17.0656ZM26.2192 17.1631H27.4849L29.0691 20.9196L30.6737 17.1631H31.9298L29.3635 22.8993H28.74L26.2192 17.1631ZM3.80469 17.1717H5.50546C7.3846 17.1717 8.69455 18.3214 8.69455 19.972C8.69455 20.795 8.29382 21.5907 7.6161 22.1188C7.04591 22.5645 6.39617 22.7644 5.49654 22.7644H3.80469V17.1717ZM9.22769 17.1717H10.3864V22.7644H9.22769V17.1717ZM32.4537 17.1717H35.7397V18.1194H33.6116V19.3607H35.6614V20.3079H33.6116V21.8175H35.7398V22.7644H32.4538L32.4537 17.1717ZM36.5072 17.1717H38.2252C39.5616 17.1717 40.3273 17.7758 40.3273 18.8229C40.3273 19.6792 39.8471 20.2411 38.9743 20.4083L40.8442 22.7644H39.4193L37.8156 20.5177H37.6645V22.7644H36.5072V17.1717ZM37.6645 18.0526V19.7463H38.0031C38.743 19.7463 39.1352 19.4438 39.1352 18.8817C39.1352 18.3374 38.7429 18.0526 38.0213 18.0526H37.6645ZM4.96256 18.1193V21.8175H5.2735C6.02223 21.8175 6.49512 21.6825 6.85919 21.373C7.25987 21.0371 7.50091 20.5006 7.50091 19.9639C7.50091 19.428 7.25987 18.9076 6.85919 18.5716C6.47645 18.2456 6.02223 18.1193 5.2735 18.1193H4.96256Z" fill="white"/>
<path id="Vector_3" fill-rule="evenodd" clip-rule="evenodd" d="M23.4146 16.9915C25.16 16.9915 26.5748 18.3217 26.5748 19.9649V19.9667C26.5748 21.6099 25.16 22.9419 23.4146 22.9419C21.6693 22.9419 20.2544 21.6099 20.2544 19.9667V19.9649C20.2544 18.3216 21.6693 16.9915 23.4146 16.9915L23.4146 16.9915ZM43.996 24.1639C42.5265 25.1979 31.525 32.5882 12.4766 36.158H40.8939C42.6068 36.158 43.996 36.158 43.996 36.158V7.89746L43.996 24.1639Z" fill="#F47216"/>
</g>
</g>
<defs>
<clipPath id="clip0_13095_30657">
<rect width="44" height="44" fill="white"/>
</clipPath>
</defs>
</svg>
