<svg width="28" height="28" viewBox="0 0 28 28" fill="none" xmlns="http://www.w3.org/2000/svg">
<path d="M23 16.9999L19.914 13.9139C19.5389 13.539 19.0303 13.3284 18.5 13.3284C17.9697 13.3284 17.4611 13.539 17.086 13.9139L8 22.9999M7 5H21C22.1046 5 23 5.89543 23 7V21C23 22.1046 22.1046 23 21 23H7C5.89543 23 5 22.1046 5 21V7C5 5.89543 5.89543 5 7 5ZM13 11C13 12.1046 12.1046 13 11 13C9.89543 13 9 12.1046 9 11C9 9.89543 9.89543 9 11 9C12.1046 9 13 9.89543 13 11Z" stroke="#171717" stroke-width="1.5" stroke-linecap="round" stroke-linejoin="round"/>
</svg>
