<svg width="28" height="28" viewBox="0 0 28 28" fill="none" xmlns="http://www.w3.org/2000/svg">
<path d="M14 14C12 11.33 10 10 8 10C6.93913 10 5.92172 10.4214 5.17157 11.1716C4.42143 11.9217 4 12.9391 4 14C4 15.0609 4.42143 16.0783 5.17157 16.8284C5.92172 17.5786 6.93913 18 8 18C10 18 12 16.67 14 14ZM14 14C16 16.67 18 18 20 18C21.0609 18 22.0783 17.5786 22.8284 16.8284C23.5786 16.0783 24 15.0609 24 14C24 12.9391 23.5786 11.9217 22.8284 11.1716C22.0783 10.4214 21.0609 10 20 10C18 10 16 11.33 14 14Z" stroke="#171717" stroke-width="1.5" stroke-linecap="round" stroke-linejoin="round"/>
</svg>
