<svg width="44" height="44" viewBox="0 0 44 44" fill="none" xmlns="http://www.w3.org/2000/svg">
<g id="jcb-svgrepo-com" clip-path="url(#clip0_13095_30662)">
<path id="Vector" d="M2.25641 7.89746H41.7436C42.9898 7.89746 44 8.90771 44 10.1539V33.8462C44 35.0924 42.9898 36.1026 41.7436 36.1026H2.25641C1.01025 36.1026 0 35.0924 0 33.8462V10.1539C0 8.90771 1.01025 7.89746 2.25641 7.89746Z" fill="#0E4C96"/>
<path id="Vector_2" d="M35.6661 28.2768C35.6661 30.6243 33.7635 32.5278 31.4151 32.5278H8.33594V15.7244C8.33594 13.3762 10.2388 11.4727 12.5873 11.4727L35.6659 11.4727L35.6659 28.2767L35.6661 28.2768Z" fill="white"/>
<path id="Vector_3" d="M28.1434 22.3685C28.8025 22.3828 29.4655 22.3394 30.122 22.3911C30.7869 22.5151 30.9472 23.5217 30.3565 23.8514C29.9536 24.0687 29.4746 23.9323 29.0376 23.9706H28.1434L28.1434 22.3685ZM30.5032 20.5552C30.6496 21.0721 30.1513 21.5363 29.6533 21.4651H28.1434C28.1538 20.9776 28.1226 20.4485 28.1587 19.9867C28.7637 20.0037 29.3742 19.9519 29.9756 20.0137C30.2341 20.0786 30.4503 20.2911 30.5032 20.5552ZM34.1376 12.889C34.1657 13.8763 34.1416 14.9157 34.1497 15.923C34.1477 20.0181 34.1537 24.1132 34.1466 28.2085C34.12 29.7433 32.7599 31.0767 31.2357 31.1073C29.7101 31.1136 28.1842 31.1082 26.6585 31.11V24.9189C28.3209 24.9102 29.9844 24.9362 31.6461 24.9058C32.4171 24.8574 33.2613 24.3488 33.2972 23.5004C33.3881 22.6485 32.5847 22.0591 31.822 21.966C31.5288 21.9584 31.5375 21.8805 31.822 21.8466C32.5492 21.6894 33.1206 20.9365 32.9065 20.1826C32.724 19.3895 31.8476 19.0826 31.1185 19.0841C29.632 19.074 28.1452 19.0827 26.6586 19.0798C26.6683 17.924 26.6386 16.767 26.6747 15.612C26.7925 14.105 28.1869 12.8622 29.6897 12.8891L34.1376 12.889Z" fill="url(#paint0_linear_13095_30662)"/>
<path id="Vector_4" d="M9.8598 15.7693C9.89782 14.237 11.2638 12.9143 12.7861 12.892C14.306 12.8873 15.8261 12.8913 17.3461 12.89C17.3419 18.0168 17.3545 23.1442 17.3398 28.2708C17.2812 29.7846 15.9301 31.082 14.4246 31.1087C12.9017 31.1143 11.3787 31.1095 9.85579 31.111V24.7113C11.335 25.0607 12.8863 25.2095 14.3953 24.9776C15.2975 24.8324 16.2844 24.3896 16.5898 23.4537C16.8146 22.6532 16.688 21.8107 16.7214 20.9891V19.0811H14.1098C14.0981 20.3429 14.1338 21.6071 14.0909 22.8676C14.0205 23.6424 13.2534 24.1346 12.5227 24.1083C11.6164 24.1179 9.82076 23.4518 9.82076 23.4518C9.81625 21.0872 9.84705 18.1261 9.8598 15.7698V15.7693Z" fill="url(#paint1_linear_13095_30662)"/>
<path id="Vector_5" d="M18.3213 19.85C18.184 19.8791 18.2937 19.3817 18.2585 19.193C18.2678 18 18.239 16.8056 18.2745 15.6133C18.392 14.0999 19.7971 12.854 21.3059 12.8894H25.7491C25.745 18.0162 25.7574 23.1437 25.7429 28.2702C25.6843 29.7839 24.3331 31.0813 22.8275 31.1081C21.3046 31.1138 19.7816 31.109 18.2585 31.1105V24.0987C19.2987 24.9521 20.7123 25.085 22.0082 25.0873C22.985 25.0869 23.9563 24.9364 24.9049 24.711V23.4265C23.8358 23.9593 22.579 24.2978 21.3938 23.9916C20.5671 23.7857 19.9669 22.9868 19.9804 22.1336C19.8845 21.2464 20.4048 20.3096 21.2767 20.0458C22.3592 19.7069 23.5392 19.9661 24.5539 20.4067C24.7713 20.5206 24.992 20.6617 24.9049 20.2983V19.2886C23.2079 18.8849 21.4018 18.7362 19.6966 19.1755C19.2031 19.3148 18.7223 19.526 18.3213 19.8501V19.85Z" fill="url(#paint2_linear_13095_30662)"/>
</g>
<defs>
<linearGradient id="paint0_linear_13095_30662" x1="26.6295" y1="22.0329" x2="34.1248" y2="22.0329" gradientUnits="userSpaceOnUse">
<stop stop-color="#007B40"/>
<stop offset="1" stop-color="#55B330"/>
</linearGradient>
<linearGradient id="paint1_linear_13095_30662" x1="9.87362" y1="22.0337" x2="17.3628" y2="22.0337" gradientUnits="userSpaceOnUse">
<stop stop-color="#1D2970"/>
<stop offset="1" stop-color="#006DBA"/>
</linearGradient>
<linearGradient id="paint2_linear_13095_30662" x1="18.2646" y1="22.233" x2="25.7574" y2="22.233" gradientUnits="userSpaceOnUse">
<stop stop-color="#6E2B2F"/>
<stop offset="1" stop-color="#E30138"/>
</linearGradient>
<clipPath id="clip0_13095_30662">
<rect width="44" height="44" fill="white"/>
</clipPath>
</defs>
</svg>
