<svg width="44" height="44" viewBox="0 0 44 44" fill="none" xmlns="http://www.w3.org/2000/svg">
<g id="mastercard-svgrepo-com" clip-path="url(#clip0_13095_30646)">
<path id="Vector" d="M44 7.89746H0V36.1026H44V7.89746Z" fill="#16366F"/>
<path id="Vector_2" d="M25.33 21.9997C25.33 27.5923 20.7963 32.1253 15.2038 32.1253C9.61125 32.1253 5.07812 27.5921 5.07812 21.9997C5.07812 16.4075 9.61137 11.874 15.2038 11.874C20.7961 11.874 25.33 16.4077 25.33 21.9997Z" fill="#D9222A"/>
<path id="Vector_3" d="M28.7966 11.874C26.1803 11.874 23.7962 12.8666 21.9991 14.4952C21.633 14.8274 21.2913 15.1855 20.9767 15.5668H23.0225C23.3026 15.9073 23.5604 16.2656 23.7945 16.6393H20.2048C19.9889 16.9846 19.7941 17.3427 19.6214 17.7115H24.3775C24.5407 18.0604 24.6839 18.4183 24.8062 18.7835H19.1927C19.0748 19.1353 18.9766 19.4932 18.8984 19.8558H25.1002C25.2519 20.5604 25.3283 21.2791 25.3281 21.9999C25.3281 23.1244 25.1446 24.2063 24.8061 25.2164H19.1926C19.3147 25.5819 19.4577 25.9399 19.6211 26.2888H24.3774C24.2046 26.6577 24.0096 27.0158 23.7937 27.3613H20.2046C20.4389 27.7352 20.6971 28.0934 20.9766 28.4329H23.0219C22.7077 28.8149 22.3659 29.1733 21.9992 29.5053C23.7964 31.1337 26.1802 32.1258 28.7966 32.1258C34.389 32.1258 38.9228 27.5926 38.9228 22.0002C38.9228 16.4082 34.3891 11.8745 28.7966 11.8745" fill="#EE9F2D"/>
<path id="Vector_4" d="M37.5769 27.6447C37.5769 27.4642 37.7231 27.3175 37.9039 27.3175C38.0846 27.3175 38.2308 27.4642 38.2308 27.6447C38.2308 27.8252 38.0846 27.9719 37.9039 27.9719C37.7232 27.9718 37.5769 27.8253 37.5769 27.6447ZM37.9039 27.8934C38.0412 27.8933 38.1525 27.782 38.1525 27.6447C38.1525 27.5075 38.0413 27.3963 37.9041 27.3963H37.9039C37.7669 27.3961 37.6557 27.5071 37.6554 27.6441V27.6448C37.6553 27.782 37.7664 27.8933 37.9036 27.8935C37.9036 27.8934 37.9038 27.8934 37.9039 27.8934ZM37.8597 27.7885H37.7927V27.5011H37.9139C37.9393 27.5011 37.9651 27.5011 37.9875 27.5155C38.0108 27.5311 38.024 27.5589 38.024 27.5875C38.024 27.6197 38.005 27.6498 37.9742 27.6616L38.027 27.7885H37.9528L37.9088 27.6748H37.8598L37.8597 27.7885ZM37.8597 27.6255H37.8968C37.9107 27.6255 37.9253 27.6266 37.9377 27.6198C37.9488 27.6128 37.9544 27.5996 37.9544 27.5869C37.9544 27.5759 37.9477 27.5632 37.9382 27.5578C37.9265 27.5504 37.9079 27.5521 37.8954 27.5521H37.8597V27.6255ZM12.8418 23.1091C12.7264 23.0957 12.6756 23.0921 12.5964 23.0921C11.9733 23.0921 11.6579 23.3058 11.6579 23.7277C11.6579 23.9878 11.8119 24.1534 12.052 24.1534C12.4998 24.1534 12.8225 23.7269 12.8418 23.1091ZM13.6411 24.9704H12.7303L12.7513 24.5374C12.4735 24.8796 12.1028 25.0423 11.5991 25.0423C11.0033 25.0423 10.5948 24.5769 10.5948 23.9011C10.5948 22.8844 11.3053 22.2912 12.525 22.2912C12.6495 22.2912 12.8093 22.3025 12.9729 22.3233C13.007 22.1856 13.016 22.1266 13.016 22.0525C13.016 21.7757 12.8244 21.6724 12.3108 21.6724C11.7731 21.6663 11.3295 21.8005 11.1474 21.8605C11.1589 21.7911 11.2997 20.9208 11.2997 20.9208C11.8475 20.7603 12.2088 20.6999 12.6154 20.6999C13.5594 20.6999 14.0593 21.1236 14.0584 21.9246C14.0602 22.1393 14.0247 22.4041 13.9693 22.7522C13.8738 23.3576 13.6692 24.6543 13.6411 24.9704ZM10.1348 24.9704H9.03548L9.66518 21.0218L8.25916 24.9704H7.51003L7.41752 21.0444L6.7556 24.9704H5.72656L6.58614 19.834H8.16676L8.26266 22.709L9.22682 19.834H10.985L10.1348 24.9704ZM30.1593 23.1091C30.0444 23.0957 29.9934 23.0921 29.9144 23.0921C29.2916 23.0921 28.9761 23.3058 28.9761 23.7277C28.9761 23.9878 29.1298 24.1534 29.37 24.1534C29.8178 24.1534 30.1408 23.7269 30.1593 23.1091ZM30.9594 24.9704H30.0486L30.0692 24.5374C29.7914 24.8796 29.4205 25.0423 28.9173 25.0423C28.3213 25.0423 27.9132 24.5769 27.9132 23.9011C27.9132 22.8844 28.6233 22.2912 29.8431 22.2912C29.9677 22.2912 30.1273 22.3025 30.2907 22.3233C30.3248 22.1856 30.3337 22.1266 30.3337 22.0525C30.3337 21.7757 30.1424 21.6724 29.6288 21.6724C29.0911 21.6663 28.648 21.8005 28.4651 21.8605C28.4767 21.7911 28.6179 20.9208 28.6179 20.9208C29.1658 20.7603 29.5268 20.6999 29.9329 20.6999C30.8773 20.6999 31.3773 21.1236 31.3764 21.9246C31.3782 22.1393 31.3427 22.4041 31.2872 22.7522C31.1924 23.3576 30.9871 24.6543 30.9594 24.9704ZM18.5271 24.9069C18.2262 25.0017 17.9917 25.0423 17.7374 25.0423C17.1754 25.0423 16.8687 24.7193 16.8687 24.1246C16.8607 23.9402 16.9495 23.4545 17.0193 23.0113C17.0827 22.6211 17.4959 20.1609 17.4959 20.1609H18.5887L18.4611 20.7932H19.1211L18.972 21.797H18.3096C18.1827 22.5915 18.0019 23.581 17.9999 23.7122C17.9999 23.9275 18.1148 24.0215 18.3761 24.0215C18.5014 24.0215 18.5984 24.0087 18.6725 23.982L18.5271 24.9069ZM21.8774 24.8731C21.502 24.9878 21.1398 25.0433 20.756 25.0423C19.5329 25.0411 18.8952 24.4023 18.8952 23.179C18.8952 21.7511 19.7064 20.6999 20.8075 20.6999C21.7084 20.6999 22.2838 21.2884 22.2838 22.2115C22.2838 22.5177 22.2443 22.8167 22.1491 23.2388H19.9731C19.8995 23.8448 20.2873 24.0972 20.9229 24.0972C21.3141 24.0972 21.6668 24.0166 22.0591 23.8342L21.8774 24.8731ZM21.2632 22.3967C21.2693 22.3096 21.3791 21.6511 20.7548 21.6511C20.4067 21.6511 20.1578 21.9165 20.0565 22.3967H21.2632ZM14.3011 22.1137C14.3011 22.6421 14.5573 23.0064 15.1383 23.28C15.5835 23.4892 15.6523 23.5513 15.6523 23.7409C15.6523 24.0013 15.456 24.1188 15.021 24.1188C14.6931 24.1188 14.3881 24.0677 14.0362 23.9541C14.0362 23.9541 13.8916 24.8747 13.885 24.9188C14.1349 24.9733 14.3577 25.0238 15.029 25.0423C16.1889 25.0423 16.7246 24.6007 16.7246 23.6462C16.7246 23.0722 16.5004 22.7354 15.9497 22.4823C15.4888 22.2707 15.4358 22.2234 15.4358 22.0284C15.4358 21.8025 15.6185 21.6873 15.9739 21.6873C16.1897 21.6873 16.4844 21.7103 16.7636 21.7501L16.9202 20.7813C16.6355 20.7361 16.204 20.6999 15.9527 20.6999C14.723 20.6999 14.2973 21.3423 14.3011 22.1137ZM27.2241 20.8097C27.5295 20.8097 27.8141 20.8898 28.2064 21.0872L28.3862 19.9724C28.2252 19.9093 27.6583 19.5381 27.1781 19.5381C26.4424 19.5381 25.8205 19.9031 25.3831 20.5055C24.7451 20.2942 24.4829 20.7213 24.1613 21.1467L23.8758 21.2132C23.8974 21.0732 23.917 20.934 23.9104 20.7932H22.9008C22.7629 22.086 22.5184 23.3954 22.3271 24.6898L22.2772 24.9705H23.377C23.5606 23.7778 23.6612 23.0141 23.7223 22.4973L24.1364 22.2669C24.1983 22.0368 24.3919 21.959 24.7804 21.9684C24.7282 22.2509 24.7021 22.5376 24.7024 22.8249C24.7024 24.1915 25.4397 25.0423 26.6232 25.0423C26.928 25.0423 27.1897 25.0022 27.5946 24.8924L27.7882 23.7214C27.4238 23.9007 27.1247 23.9851 26.854 23.9851C26.2149 23.9851 25.8282 23.5134 25.8282 22.7337C25.8282 21.6027 26.4033 20.8097 27.2241 20.8097Z" fill="black"/>
<path id="Vector_5" d="M10.4473 24.665H9.34781L9.97791 20.717L8.57188 24.665H7.82264L7.73002 20.7395L7.06815 24.665H6.03906L6.89864 19.5293H8.47926L8.52371 22.7087L9.59009 19.5293H11.2975L10.4473 24.665Z" fill="white"/>
<path id="Vector_6" d="M36.5248 19.834L36.2812 21.318C35.9805 20.9225 35.6576 20.6362 35.2313 20.6362C34.6766 20.6362 34.1717 21.0567 33.8412 21.6756C33.381 21.5801 32.905 21.4182 32.905 21.4182L32.9048 21.4219C32.9419 21.076 32.9567 20.8649 32.9534 20.7932H31.9436C31.8062 22.0859 31.5617 23.3954 31.3707 24.6897L31.3203 24.9704H32.4199C32.5684 24.006 32.6822 23.2052 32.7658 22.5701C33.1415 22.2307 33.3295 21.9345 33.7091 21.9543C33.541 22.3608 33.4425 22.8289 33.4425 23.3091C33.4425 24.3534 33.9709 25.0423 34.7701 25.0423C35.1729 25.0423 35.482 24.9034 35.7836 24.5814L35.7321 24.9697H36.7719L37.6092 19.834H36.5248ZM35.1501 24.0051C34.7759 24.0051 34.587 23.7282 34.587 23.1817C34.587 22.3607 34.9407 21.7784 35.4394 21.7784C35.8171 21.7784 36.0216 22.0664 36.0216 22.5968C36.0217 23.425 35.6623 24.0051 35.1501 24.0051Z" fill="black"/>
<path id="Vector_7" d="M13.1528 22.8041C13.0376 22.7908 12.9866 22.7871 12.9076 22.7871C12.2845 22.7871 11.9693 23.0008 11.9693 23.4227C11.9693 23.6824 12.1233 23.8485 12.363 23.8485C12.8112 23.8484 13.1339 23.422 13.1528 22.8041ZM13.9526 24.6647H13.0418L13.0625 24.2324C12.7849 24.5739 12.4138 24.7373 11.9106 24.7373C11.3145 24.7373 10.9062 24.2719 10.9062 23.5962C10.9062 22.579 11.6165 21.9861 12.8364 21.9861C12.961 21.9861 13.1208 21.9974 13.2842 22.0183C13.3182 21.8806 13.3272 21.8216 13.3272 21.7471C13.3272 21.4703 13.1359 21.3675 12.6223 21.3675C12.0843 21.3614 11.641 21.4956 11.4586 21.5549C11.4701 21.4857 11.6109 20.6163 11.6109 20.6163C12.1586 20.4551 12.5203 20.3946 12.9264 20.3946C13.8706 20.3946 14.3707 20.8187 14.3698 21.619C14.3715 21.8345 14.3357 22.0992 14.2805 22.4468C14.1853 23.0518 13.9804 24.3493 13.9526 24.6647ZM28.6971 19.6672L28.5171 20.7823C28.125 20.5851 27.8402 20.5047 27.5351 20.5047C26.7143 20.5047 26.139 21.2977 26.139 22.4287C26.139 23.2083 26.5258 23.6799 27.1647 23.6799C27.4355 23.6799 27.7342 23.5957 28.0985 23.4161L27.9056 24.5866C27.5003 24.6971 27.239 24.7373 26.9339 24.7373C25.7506 24.7373 25.0131 23.8864 25.0131 22.5199C25.0131 20.6837 26.0318 19.4004 27.4888 19.4004C27.9687 19.4004 28.5359 19.604 28.6971 19.6672ZM30.4708 22.8041C30.3557 22.7908 30.3049 22.7871 30.2256 22.7871C29.6028 22.7871 29.2873 23.0008 29.2873 23.4227C29.2873 23.6824 29.4413 23.8485 29.6813 23.8485C30.129 23.8484 30.452 23.422 30.4708 22.8041ZM31.2706 24.6647H30.3596L30.3805 24.2324C30.1027 24.5739 29.7318 24.7373 29.2286 24.7373C28.6327 24.7373 28.2243 24.2719 28.2243 23.5962C28.2243 22.579 28.9347 21.9861 30.1542 21.9861C30.279 21.9861 30.4386 21.9974 30.6021 22.0183C30.636 21.8806 30.6452 21.8216 30.6452 21.7471C30.6452 21.4703 30.4538 21.3675 29.9403 21.3675C29.4025 21.3614 28.9589 21.4956 28.7766 21.5549C28.7881 21.4857 28.9291 20.6163 28.9291 20.6163C29.4768 20.4551 29.8382 20.3946 30.2444 20.3946C31.1888 20.3946 31.6887 20.8187 31.6875 21.619C31.6894 21.8345 31.6539 22.0992 31.5984 22.4468C31.5036 23.0518 31.2981 24.3493 31.2706 24.6647ZM18.8384 24.6014C18.5373 24.6962 18.3027 24.7373 18.0486 24.7373C17.4866 24.7373 17.1799 24.4143 17.1799 23.8197C17.1721 23.6347 17.261 23.1495 17.3308 22.7063C17.394 22.3156 17.8073 19.8557 17.8073 19.8557H18.8998L18.7723 20.4882H19.3332L19.1839 21.4916H18.6212C18.4943 22.2865 18.313 23.2753 18.3112 23.4067C18.3112 23.6228 18.4264 23.716 18.6875 23.716C18.8127 23.716 18.9096 23.7038 18.9839 23.677L18.8384 24.6014ZM22.1887 24.5681C21.8136 24.6828 21.4509 24.738 21.0673 24.7373C19.8441 24.7361 19.2065 24.0973 19.2065 22.8739C19.2065 21.4455 20.0176 20.3947 21.1188 20.3947C22.0196 20.3947 22.595 20.983 22.595 21.9065C22.595 22.213 22.5555 22.5119 22.4607 22.9338H20.2846C20.211 23.5397 20.5988 23.7924 21.2344 23.7924C21.6253 23.7924 21.9783 23.7115 22.3703 23.5287L22.1887 24.5681ZM21.5743 22.091C21.5809 22.0042 21.6904 21.3454 21.0659 21.3454C20.718 21.3454 20.4691 21.6115 20.3678 22.091H21.5743ZM14.6121 21.8087C14.6121 22.337 14.8683 22.7009 15.4494 22.975C15.8945 23.1842 15.9634 23.2464 15.9634 23.4359C15.9634 23.6963 15.7669 23.8138 15.3323 23.8138C15.0042 23.8138 14.6991 23.7626 14.347 23.6491C14.347 23.6491 14.2029 24.5697 14.1964 24.6137C14.4457 24.6683 14.6688 24.7181 15.34 24.7373C16.5002 24.7373 17.0357 24.2957 17.0357 23.3414C17.0357 22.7671 16.8117 22.4304 16.2607 22.1772C15.8 21.9653 15.7467 21.9187 15.7467 21.7234C15.7467 21.4977 15.9298 21.3816 16.2849 21.3816C16.5005 21.3816 16.7952 21.4053 17.0749 21.4451L17.2312 20.476C16.9468 20.4308 16.5153 20.3947 16.264 20.3947C15.034 20.3947 14.6086 21.0366 14.6121 21.8087ZM37.0888 24.6647H36.0488L36.1005 24.2759C35.7989 24.5984 35.4898 24.7373 35.087 24.7373C34.2877 24.7373 33.7596 24.0484 33.7596 23.0041C33.7596 21.6147 34.5788 20.4435 35.5483 20.4435C35.9747 20.4435 36.2975 20.6177 36.5978 21.013L36.8418 19.529H37.926L37.0888 24.6647ZM35.4673 23.6996C35.9792 23.6996 36.3388 23.1195 36.3388 22.292C36.3388 21.7614 36.134 21.4735 35.7564 21.4735C35.2578 21.4735 34.9037 22.0555 34.9037 22.8767C34.9036 23.4231 35.0931 23.6996 35.4673 23.6996ZM32.2607 20.4882C32.1232 21.781 31.8787 23.0904 31.6875 24.3841L31.6372 24.6647H32.7367C33.13 22.1107 33.2251 21.612 33.8417 21.6745C33.94 21.1518 34.1227 20.6939 34.2591 20.4628C33.7986 20.3669 33.5415 20.6271 33.2049 21.1214C33.2315 20.9078 33.2801 20.7003 33.2705 20.4882H32.2607ZM23.2114 20.4882C23.0734 21.781 22.829 23.0904 22.6379 24.3841L22.5879 24.6647H23.6879C24.0806 22.1107 24.1756 21.612 24.7917 21.6745C24.8905 21.1518 25.0733 20.6939 25.2092 20.4628C24.7492 20.3669 24.4919 20.6271 24.1556 21.1214C24.1821 20.9078 24.2303 20.7003 24.2211 20.4882H23.2114ZM37.5718 24.3378C37.5718 24.1565 37.7182 24.0106 37.8987 24.0106C38.0791 24.0104 38.2255 24.1565 38.2256 24.3369V24.3378C38.2256 24.5183 38.0792 24.6646 37.8987 24.6647C37.7182 24.6646 37.5719 24.5183 37.5718 24.3378ZM37.8987 24.5862C38.0359 24.5862 38.1471 24.4751 38.1471 24.3379V24.3378C38.1473 24.2006 38.0361 24.0893 37.899 24.0892H37.8987C37.7614 24.0892 37.6501 24.2005 37.65 24.3378C37.6502 24.475 37.7615 24.5862 37.8987 24.5862ZM37.8545 24.4807H37.7875V24.1939H37.909C37.9342 24.1939 37.9602 24.1944 37.9821 24.2082C38.0056 24.2242 38.019 24.2515 38.019 24.2801C38.019 24.3125 37.9999 24.3429 37.9689 24.3544L38.022 24.4805H37.9476L37.9036 24.3673H37.8545V24.4805V24.4807ZM37.8545 24.3182H37.8914C37.9052 24.3182 37.9203 24.3193 37.9325 24.3126C37.9435 24.3055 37.9492 24.2922 37.9492 24.2795C37.9487 24.2676 37.9427 24.2567 37.933 24.2499C37.9215 24.2433 37.9024 24.2451 37.8899 24.2451H37.8544L37.8545 24.3182Z" fill="white"/>
</g>
<defs>
<clipPath id="clip0_13095_30646">
<rect width="44" height="44" fill="white"/>
</clipPath>
</defs>
</svg>
