<svg width="44" height="44" viewBox="0 0 44 44" fill="none" xmlns="http://www.w3.org/2000/svg">
<g id="paypal-svgrepo-com 1" clip-path="url(#clip0_13095_30634)">
<path id="Vector" d="M2 8.39746H42C42.8284 8.39746 43.5 9.06903 43.5 9.89746V34.1026C43.5 34.931 42.8284 35.6026 42 35.6026H2C1.17157 35.6026 0.5 34.931 0.5 34.1026V9.89746C0.5 9.06903 1.17157 8.39746 2 8.39746Z" fill="white" stroke="#DCDCDC"/>
<path id="Vector_2" d="M9.50005 17.4792C9.02626 17.1535 8.408 16.9902 7.64528 16.9902H4.69243C4.45861 16.9902 4.32943 17.1072 4.30489 17.3408L3.10533 24.8704C3.09286 24.9444 3.11136 25.012 3.16067 25.0735C3.20969 25.1351 3.27134 25.1658 3.34518 25.1658H4.74777C4.99377 25.1658 5.12899 25.0491 5.15381 24.8151L5.48595 22.7852C5.49808 22.6868 5.54135 22.6068 5.61519 22.5452C5.68897 22.4837 5.78126 22.4435 5.89199 22.4251C6.00273 22.4068 6.10714 22.3976 6.20575 22.3976C6.30407 22.3976 6.4209 22.4038 6.55645 22.4161C6.69167 22.4284 6.77786 22.4343 6.81481 22.4343C7.87284 22.4343 8.70331 22.1362 9.30628 21.5393C9.90897 20.9427 10.2107 20.1153 10.2107 19.057C10.2107 18.3312 9.97362 17.8052 9.50005 17.479V17.4792ZM7.97754 19.7401C7.91583 20.1708 7.75607 20.4537 7.49771 20.589C7.2393 20.7246 6.8702 20.7919 6.39044 20.7919L5.78137 20.8104L6.09518 18.8357C6.11967 18.7005 6.1996 18.6328 6.33504 18.6328H6.6858C7.1777 18.6328 7.53472 18.7037 7.75618 18.8449C7.97754 18.9865 8.05138 19.2851 7.97754 19.7401Z" fill="#003087"/>
<path id="Vector_3" d="M40.6596 16.9893H39.294C39.1584 16.9893 39.0785 17.057 39.0541 17.1923L37.8544 24.8697L37.8359 24.9066C37.8359 24.9684 37.8606 25.0266 37.9099 25.082C37.9589 25.1372 38.0206 25.165 38.0944 25.165H39.3126C39.546 25.165 39.6752 25.0483 39.7002 24.8144L40.8997 17.2661V17.2478C40.8996 17.0756 40.8194 16.9894 40.6596 16.9894V16.9893Z" fill="#009CDE"/>
<path id="Vector_4" d="M24.1586 19.9615C24.1586 19.9001 24.1339 19.8416 24.085 19.7863C24.0356 19.7309 23.9802 19.7031 23.9188 19.7031H22.4978C22.3622 19.7031 22.2515 19.765 22.1656 19.8876L20.2093 22.7668L19.3973 19.9985C19.3355 19.8017 19.2003 19.7031 18.9913 19.7031H17.607C17.5453 19.7031 17.4899 19.7309 17.441 19.7863C17.3917 19.8416 17.3672 19.9002 17.3672 19.9615C17.3672 19.9863 17.4872 20.3491 17.727 21.0504C17.9669 21.7518 18.2253 22.5085 18.5022 23.3205C18.779 24.1325 18.9234 24.5633 18.9358 24.6122C17.9269 25.9903 17.4226 26.7286 17.4226 26.8269C17.4226 26.987 17.5025 27.0669 17.6625 27.0669H19.0835C19.2189 27.0669 19.3295 27.0055 19.4158 26.8823L24.1219 20.0906C24.1463 20.0661 24.1586 20.0233 24.1586 19.9614V19.9615Z" fill="#003087"/>
<path id="Vector_5" d="M37.3967 19.7035H35.9941C35.8217 19.7035 35.7174 19.9065 35.6805 20.3125C35.3602 19.8206 34.7762 19.5742 33.9271 19.5742C33.0412 19.5742 32.2875 19.9065 31.6663 20.5709C31.0449 21.2353 30.7344 22.0167 30.7344 22.9148C30.7344 23.6408 30.9465 24.219 31.371 24.6495C31.7954 25.0804 32.3644 25.2955 33.0783 25.2955C33.435 25.2955 33.7979 25.2215 34.167 25.074C34.5361 24.9264 34.825 24.7296 35.0345 24.4834C35.0345 24.4958 35.022 24.551 34.9976 24.6494C34.9728 24.748 34.9607 24.822 34.9607 24.8709C34.9607 25.068 35.0405 25.1661 35.2007 25.1661H36.4742C36.7076 25.1661 36.8432 25.0495 36.8799 24.8155L37.6367 19.9986C37.6488 19.9248 37.6304 19.8572 37.5813 19.7956C37.5319 19.7343 37.4706 19.7035 37.3967 19.7035ZM34.9883 23.3392C34.6746 23.6468 34.2962 23.8006 33.8534 23.8006C33.4964 23.8006 33.2075 23.7023 32.9859 23.5053C32.7644 23.3089 32.6536 23.0381 32.6536 22.6933C32.6536 22.2384 32.8075 21.8536 33.1151 21.5399C33.4223 21.2261 33.8041 21.0693 34.2593 21.0693C34.6036 21.0693 34.8897 21.1708 35.1175 21.3737C35.3449 21.5767 35.459 21.8567 35.459 22.2135C35.459 22.6564 35.302 23.0318 34.9883 23.3392Z" fill="#009CDE"/>
<path id="Vector_6" d="M16.4281 19.7035H15.0255C14.853 19.7035 14.7486 19.9065 14.7117 20.3125C14.3795 19.8206 13.795 19.5742 12.9584 19.5742C12.0725 19.5742 11.3188 19.9065 10.6976 20.5709C10.0762 21.2353 9.76562 22.0167 9.76562 22.9148C9.76562 23.6408 9.9779 24.219 10.4024 24.6495C10.8269 25.0804 11.3958 25.2955 12.1095 25.2955C12.4538 25.2955 12.8108 25.2215 13.1799 25.074C13.5489 24.9264 13.8443 24.7296 14.0657 24.4834C14.0164 24.631 13.9919 24.7602 13.9919 24.8709C13.9919 25.068 14.0718 25.1661 14.2318 25.1661H15.5052C15.7388 25.1661 15.8743 25.0495 15.9112 24.8155L16.6679 19.9986C16.68 19.9248 16.6616 19.8572 16.6125 19.7956C16.5633 19.7343 16.5019 19.7035 16.4281 19.7035ZM14.0196 23.3483C13.7058 23.6502 13.3212 23.8006 12.8662 23.8006C12.5092 23.8006 12.2231 23.7023 12.008 23.5053C11.7926 23.3089 11.685 23.0381 11.685 22.6933C11.685 22.2384 11.8387 21.8536 12.1464 21.5399C12.4538 21.2261 12.8352 21.0693 13.2906 21.0693C13.635 21.0693 13.921 21.1708 14.1489 21.3738C14.3763 21.5768 14.4903 21.8568 14.4903 22.2136C14.4903 22.6688 14.3334 23.0472 14.0196 23.3483Z" fill="#003087"/>
<path id="Vector_7" d="M30.461 17.4792C29.9873 17.1535 29.3692 16.9902 28.6063 16.9902H25.6719C25.4257 16.9902 25.2903 17.1072 25.2659 17.3408L24.0663 24.8704C24.0538 24.9444 24.0722 25.0121 24.1216 25.0735C24.1704 25.1351 24.2323 25.1658 24.3061 25.1658H25.8194C25.967 25.1658 26.0654 25.0859 26.1147 24.9259L26.447 22.7852C26.4591 22.6868 26.5022 22.6068 26.5761 22.5452C26.65 22.4837 26.7421 22.4435 26.853 22.4251C26.9637 22.4068 27.068 22.3976 27.1667 22.3976C27.2651 22.3976 27.3819 22.4038 27.5173 22.4161C27.6526 22.4284 27.739 22.4343 27.7756 22.4343C28.8339 22.4343 29.6642 22.1362 30.2672 21.5393C30.8701 20.9427 31.1715 20.1153 31.1715 19.057C31.1716 18.3312 30.9346 17.8052 30.461 17.479V17.4792ZM28.5694 20.5152C28.2987 20.6997 27.8926 20.7919 27.3514 20.7919L26.7608 20.8104L27.0745 18.8357C27.0989 18.7005 27.1788 18.6328 27.3144 18.6328H27.6465C27.9171 18.6328 28.1324 18.6451 28.2926 18.6696C28.4523 18.6944 28.6063 18.7711 28.754 18.9003C28.9016 19.0295 28.9754 19.2172 28.9754 19.4633C28.9754 19.98 28.8399 20.3306 28.5694 20.5152Z" fill="#009CDE"/>
</g>
<defs>
<clipPath id="clip0_13095_30634">
<rect width="44" height="44" fill="white"/>
</clipPath>
</defs>
</svg>
