<svg width="18" height="18" viewBox="0 0 18 18" fill="none" xmlns="http://www.w3.org/2000/svg"><g id="vuesax/twotone/global-search"><g id="vuesax/twotone/global-search_2"><g id="global-search"><g id="Group"><path id="Vector" d="M16.5 9C16.5 4.86 13.14 1.5 9 1.5C4.86 1.5 1.5 4.86 1.5 9C1.5 13.14 4.86 16.5 9 16.5" stroke="currentColor" stroke-width="1.5" stroke-linecap="round" stroke-linejoin="round"></path><g id="Group 515"><path id="Vector_2" d="M5.99922 2.25H6.74922C5.28672 6.63 5.28672 11.37 6.74922 15.75H5.99922" stroke="currentColor" stroke-width="1.5" stroke-linecap="round" stroke-linejoin="round"></path><path id="Vector_3" d="M11.25 2.25C11.9775 4.44 12.345 6.72 12.345 9" stroke="currentColor" stroke-width="1.5" stroke-linecap="round" stroke-linejoin="round"></path><path id="Vector_4" d="M2.25 12V11.25C4.44 11.9775 6.72 12.345 9 12.345" stroke="currentColor" stroke-width="1.5" stroke-linecap="round" stroke-linejoin="round"></path><path id="Vector_5" d="M2.25 6.7502C6.63 5.2877 11.37 5.2877 15.75 6.7502" stroke="currentColor" stroke-width="1.5" stroke-linecap="round" stroke-linejoin="round"></path></g></g><path id="Vector_6" d="M13.65 16.05C14.9755 16.05 16.05 14.9755 16.05 13.65C16.05 12.3245 14.9755 11.25 13.65 11.25C12.3245 11.25 11.25 12.3245 11.25 13.65C11.25 14.9755 12.3245 16.05 13.65 16.05Z" stroke="currentColor" stroke-width="1.5" stroke-linecap="round" stroke-linejoin="round"></path><path id="Vector_7" d="M16.5 16.5L15.75 15.75" stroke="currentColor" stroke-width="1.5" stroke-linecap="round" stroke-linejoin="round"></path></g></g></g></svg>
