<svg width="28" height="28" viewBox="0 0 28 28" fill="none" xmlns="http://www.w3.org/2000/svg">
<path d="M7 5V9M21 19V23M5 7H9M19 21H23M14 5L12.088 10.813C11.9901 11.1105 11.8238 11.3809 11.6023 11.6023C11.3809 11.8238 11.1105 11.9901 10.813 12.088L5 14L10.813 15.912C11.1105 16.0099 11.3809 16.1762 11.6023 16.3977C11.8238 16.6191 11.9901 16.8895 12.088 17.187L14 23L15.912 17.187C16.0099 16.8895 16.1762 16.6191 16.3977 16.3977C16.6191 16.1762 16.8895 16.0099 17.187 15.912L23 14L17.187 12.088C16.8895 11.9901 16.6191 11.8238 16.3977 11.6023C16.1762 11.3809 16.0099 11.1105 15.912 10.813L14 5Z" stroke="#171717" stroke-width="1.5" stroke-linecap="round" stroke-linejoin="round"/>
</svg>
