<svg width="44" height="44" viewBox="0 0 44 44" fill="none" xmlns="http://www.w3.org/2000/svg">
<g id="visa-svgrepo-com" clip-path="url(#clip0_13095_30642)">
<path id="Vector" d="M44 7.89746H0V36.1026H44V7.89746Z" fill="#0E4595"/>
<path id="Vector_2" d="M16.5395 27.5694L18.4214 16.5265H21.4314L19.5482 27.5694H16.5395ZM30.4226 16.7646C29.8263 16.5409 28.8918 16.3008 27.725 16.3008C24.7507 16.3008 22.6556 17.7985 22.6379 19.9451C22.621 21.5319 24.1335 22.4171 25.2752 22.9453C26.4469 23.4865 26.8407 23.8317 26.8351 24.3151C26.8277 25.0553 25.8995 25.3934 25.0344 25.3934C23.8297 25.3934 23.1896 25.2261 22.2011 24.8138L21.8132 24.6383L21.3908 27.1104C22.0938 27.4186 23.3939 27.6857 24.7437 27.6995C27.9077 27.6995 29.9616 26.2189 29.9851 23.9267C29.9963 22.6705 29.1944 21.7145 27.4578 20.9263C26.4058 20.4155 25.7615 20.0746 25.7683 19.5573C25.7683 19.0983 26.3137 18.6075 27.492 18.6075C28.4763 18.5922 29.1894 18.8069 29.7449 19.0305L30.0146 19.158L30.4226 16.7646ZM38.1683 16.5264H35.8424C35.1219 16.5264 34.5826 16.7231 34.2662 17.4421L29.7961 27.5621H32.9568C32.9568 27.5621 33.4735 26.2013 33.5904 25.9027C33.9359 25.9027 37.0063 25.9074 37.4453 25.9074C37.5354 26.294 37.8114 27.5621 37.8114 27.5621H40.6045L38.1683 16.526V16.5264ZM34.478 23.6572C34.7269 23.0209 35.6773 20.5702 35.6773 20.5702C35.6595 20.5997 35.9243 19.9309 36.0764 19.5163L36.2797 20.4684C36.2797 20.4684 36.8562 23.1044 36.9766 23.6572H34.478ZM13.9842 16.5264L11.0373 24.0571L10.7233 22.5267C10.1747 20.7626 8.46547 18.8513 6.55469 17.8944L9.24918 27.5519L12.4339 27.5483L17.1726 16.5263H13.9842" fill="white"/>
<path id="Vector_3" d="M8.29045 16.5256H3.43685L3.39844 16.7554C7.17443 17.6694 9.67295 19.8784 10.7103 22.5324L9.6549 17.4577C9.47269 16.7585 8.9443 16.5498 8.29056 16.5254" fill="#F2AE14"/>
</g>
<defs>
<clipPath id="clip0_13095_30642">
<rect width="44" height="44" fill="white"/>
</clipPath>
</defs>
</svg>
