<svg width="28" height="28" viewBox="0 0 28 28" fill="none" xmlns="http://www.w3.org/2000/svg">
<path d="M24 14C24 8.48 19.52 4 14 4C8.48 4 4 8.48 4 14C4 19.52 8.48 24 14 24" stroke="#171717" stroke-width="1.5" stroke-linecap="round" stroke-linejoin="round"/>
<path d="M10.0016 5H11.0016C9.05156 10.84 9.05156 17.16 11.0016 23H10.0016" stroke="#171717" stroke-width="1.5" stroke-linecap="round" stroke-linejoin="round"/>
<path d="M17 5C17.97 7.92 18.46 10.96 18.46 14" stroke="#171717" stroke-width="1.5" stroke-linecap="round" stroke-linejoin="round"/>
<path d="M5 18V17C7.92 17.97 10.96 18.46 14 18.46" stroke="#171717" stroke-width="1.5" stroke-linecap="round" stroke-linejoin="round"/>
<path d="M5 10.9996C10.84 9.04961 17.16 9.04961 23 10.9996" stroke="#171717" stroke-width="1.5" stroke-linecap="round" stroke-linejoin="round"/>
<path d="M20.2 23.4C21.9673 23.4 23.4 21.9673 23.4 20.2C23.4 18.4327 21.9673 17 20.2 17C18.4327 17 17 18.4327 17 20.2C17 21.9673 18.4327 23.4 20.2 23.4Z" stroke="#171717" stroke-width="1.5" stroke-linecap="round" stroke-linejoin="round"/>
<path d="M24 24L23 23" stroke="#171717" stroke-width="1.5" stroke-linecap="round" stroke-linejoin="round"/>
</svg>
